<svg xmlns="http://www.w3.org/2000/svg" width="20" height="20" viewBox="0 0 20 20"><g><g><path d="M20 10c0 5.513-4.486 10-10 10S0 15.512 0 10C0 4.485 4.486 0 10 0s10 4.486 10 10zM11.9 8.014a25.279 25.279 0 0 1 .71 1.59 15.84 15.84 0 0 1 1.926-.113c1.921 0 3.53.301 3.909.378a8.405 8.405 0 0 0-1.867-5.15c-.295.383-1.722 2.075-4.678 3.295zM8.095 1.783a45.571 45.571 0 0 1 3.107 4.88c2.851-1.08 4.128-2.677 4.364-3a8.412 8.412 0 0 0-7.471-1.88zm-6.351 6.44h.082c.778 0 4.004-.063 7.636-1.019a54.426 54.426 0 0 0-3.09-4.818 8.478 8.478 0 0 0-4.628 5.837zm1.935 7.387c.357-.59 2.678-4.205 6.9-5.571.093-.03.187-.057.28-.085a28.262 28.262 0 0 0-.645-1.35c-3.75 1.115-7.39 1.202-8.437 1.202l-.222-.002a8.412 8.412 0 0 0 2.123 5.806zm9.584 2.194c-.135-.786-.626-3.325-1.786-6.35l-.01.003c-4.627 1.613-6.379 4.77-6.62 5.245A8.407 8.407 0 0 0 10 18.46a8.397 8.397 0 0 0 3.263-.657zm5.07-6.408a12.571 12.571 0 0 0-3.467-.484c-.538 0-1.111.036-1.7.127 1.05 2.902 1.505 5.281 1.618 5.932a8.462 8.462 0 0 0 3.55-5.575z"/><path fill="#ea4c89" d="M20 10c0 5.513-4.486 10-10 10S0 15.512 0 10C0 4.485 4.486 0 10 0s10 4.486 10 10zM11.9 8.014a25.279 25.279 0 0 1 .71 1.59 15.84 15.84 0 0 1 1.926-.113c1.921 0 3.53.301 3.909.378a8.405 8.405 0 0 0-1.867-5.15c-.295.383-1.722 2.075-4.678 3.295zM8.095 1.783a45.571 45.571 0 0 1 3.107 4.88c2.851-1.08 4.128-2.677 4.364-3a8.412 8.412 0 0 0-7.471-1.88zm-6.351 6.44h.082c.778 0 4.004-.063 7.636-1.019a54.426 54.426 0 0 0-3.09-4.818 8.478 8.478 0 0 0-4.628 5.837zm1.935 7.387c.357-.59 2.678-4.205 6.9-5.571.093-.03.187-.057.28-.085a28.262 28.262 0 0 0-.645-1.35c-3.75 1.115-7.39 1.202-8.437 1.202l-.222-.002a8.412 8.412 0 0 0 2.123 5.806zm9.584 2.194c-.135-.786-.626-3.325-1.786-6.35l-.01.003c-4.627 1.613-6.379 4.77-6.62 5.245A8.407 8.407 0 0 0 10 18.46a8.397 8.397 0 0 0 3.263-.657zm5.07-6.408a12.571 12.571 0 0 0-3.467-.484c-.538 0-1.111.036-1.7.127 1.05 2.902 1.505 5.281 1.618 5.932a8.462 8.462 0 0 0 3.55-5.575z"/></g></g></svg>