<svg xmlns="http://www.w3.org/2000/svg" width="20" height="20" viewBox="0 0 20 20"><g><g><path d="M7.763 9.209h-2.01V7.567h2.142s.521 0 .521.765c0 .766-.306.877-.653.877zm6.74 1.134h-2.418s.158-1.134 1.295-1.134 1.122 1.134 1.122 1.134zm-5.831 1.01c0 .862-.58.95-.884.957H5.754v-1.967h2.141s.777-.01.777 1.01zM19.997 10c0 5.513-4.485 9.997-9.997 9.997C4.487 19.996.002 15.512.002 10 .002 4.487 4.487.002 10 .002c5.512 0 9.997 4.485 9.997 9.997zm-8.229-2.4h3.036v-.907h-3.036zm-2.913 2.02s1.123-.084 1.123-1.4c0-1.317-.918-1.96-2.083-1.96H4.067v7.36h3.828s2.338.073 2.338-2.173c0 0 .102-1.827-1.378-1.827zm4.497-1.488c-2.83 0-2.827 2.828-2.827 2.828s-.194 2.813 2.827 2.813c0 0 2.518.144 2.518-1.957h-1.296s.044.791-1.18.791c0 0-1.294.087-1.294-1.28h3.813s.418-3.195-2.561-3.195z"/><path fill="#0061ff" d="M7.763 9.209h-2.01V7.567h2.142s.521 0 .521.765c0 .766-.306.877-.653.877zm6.74 1.134h-2.418s.158-1.134 1.295-1.134 1.122 1.134 1.122 1.134zm-5.831 1.01c0 .862-.58.95-.884.957H5.754v-1.967h2.141s.777-.01.777 1.01zM19.997 10c0 5.513-4.485 9.997-9.997 9.997C4.487 19.996.002 15.512.002 10 .002 4.487 4.487.002 10 .002c5.512 0 9.997 4.485 9.997 9.997zm-8.229-2.4h3.036v-.907h-3.036zm-2.913 2.02s1.123-.084 1.123-1.4c0-1.317-.918-1.96-2.083-1.96H4.067v7.36h3.828s2.338.073 2.338-2.173c0 0 .102-1.827-1.378-1.827zm4.497-1.488c-2.83 0-2.827 2.828-2.827 2.828s-.194 2.813 2.827 2.813c0 0 2.518.144 2.518-1.957h-1.296s.044.791-1.18.791c0 0-1.294.087-1.294-1.28h3.813s.418-3.195-2.561-3.195z"/></g></g></svg>