<svg xmlns="http://www.w3.org/2000/svg" width="20" height="20" viewBox="0 0 20 20"><g><g><path d="M20 10c0 5.522-4.478 10-10 10-5.523 0-10-4.478-10-10C0 4.476 4.477 0 10 0c5.522 0 10 4.476 10 10zm-3.795-3.516c-.44.194-.917.328-1.414.387a2.47 2.47 0 0 0 1.083-1.362 4.976 4.976 0 0 1-1.564.596 2.464 2.464 0 0 0-4.197 2.246A6.987 6.987 0 0 1 5.04 5.78a2.46 2.46 0 0 0 .762 3.286 2.452 2.452 0 0 1-1.115-.31v.032c0 1.193.85 2.187 1.975 2.414a2.526 2.526 0 0 1-1.113.043 2.465 2.465 0 0 0 2.3 1.71 4.945 4.945 0 0 1-3.645 1.018 6.975 6.975 0 0 0 3.774 1.106c4.53 0 7.006-3.75 7.006-7.005l-.007-.318c.48-.345.9-.78 1.229-1.271z"/><path fill="#00aced" d="M20 10c0 5.522-4.478 10-10 10-5.523 0-10-4.478-10-10C0 4.476 4.477 0 10 0c5.522 0 10 4.476 10 10zm-3.795-3.516c-.44.194-.917.328-1.414.387a2.47 2.47 0 0 0 1.083-1.362 4.976 4.976 0 0 1-1.564.596 2.464 2.464 0 0 0-4.197 2.246A6.987 6.987 0 0 1 5.04 5.78a2.46 2.46 0 0 0 .762 3.286 2.452 2.452 0 0 1-1.115-.31v.032c0 1.193.85 2.187 1.975 2.414a2.526 2.526 0 0 1-1.113.043 2.465 2.465 0 0 0 2.3 1.71 4.945 4.945 0 0 1-3.645 1.018 6.975 6.975 0 0 0 3.774 1.106c4.53 0 7.006-3.75 7.006-7.005l-.007-.318c.48-.345.9-.78 1.229-1.271z"/></g></g></svg>