<svg xmlns="http://www.w3.org/2000/svg" width="87" height="74" viewBox="0 0 87 74"><g><g><path d="M54.692 50.633v-7.671h32.3v23.017c0 2.109-.752 3.916-2.259 5.418-1.506 1.503-3.317 2.253-5.431 2.253H8.548c-2.115 0-3.926-.75-5.432-2.253C1.61 69.895.857 68.088.857 65.98V42.962h32.3v7.671c0 .832.305 1.551.914 2.159.609.607 1.33.911 2.163.911h15.382c.833 0 1.554-.304 2.163-.911.608-.608.913-1.327.913-2.159zm-16.92-7.671h12.306v6.137H37.772zm49.22-23.019v18.415H.857V19.943c0-2.11.753-3.916 2.26-5.418 1.505-1.503 3.316-2.254 5.431-2.254h16.92V4.598c0-1.279.448-2.366 1.345-3.26.898-.895 1.987-1.343 3.269-1.343h27.686c1.282 0 2.372.448 3.268 1.343.898.895 1.346 1.981 1.346 3.26v7.673h16.92c2.114 0 3.925.75 5.431 2.254 1.507 1.502 2.26 3.308 2.26 5.418zM56.23 6.133H31.62v6.138h24.61z"/><path fill="#54d154" d="M54.692 50.633v-7.671h32.3v23.017c0 2.109-.752 3.916-2.259 5.418-1.506 1.503-3.317 2.253-5.431 2.253H8.548c-2.115 0-3.926-.75-5.432-2.253C1.61 69.895.857 68.088.857 65.98V42.962h32.3v7.671c0 .832.305 1.551.914 2.159.609.607 1.33.911 2.163.911h15.382c.833 0 1.554-.304 2.163-.911.608-.608.913-1.327.913-2.159zm-16.92-7.671h12.306v6.137H37.772zm49.22-23.019v18.415H.857V19.943c0-2.11.753-3.916 2.26-5.418 1.505-1.503 3.316-2.254 5.431-2.254h16.92V4.598c0-1.279.448-2.366 1.345-3.26.898-.895 1.987-1.343 3.269-1.343h27.686c1.282 0 2.372.448 3.268 1.343.898.895 1.346 1.981 1.346 3.26v7.673h16.92c2.114 0 3.925.75 5.431 2.254 1.507 1.502 2.26 3.308 2.26 5.418zM56.23 6.133H31.62v6.138h24.61z"/></g></g></svg>