<svg xmlns="http://www.w3.org/2000/svg" width="87" height="68" viewBox="0 0 87 68"><g><g><path d="M86.135 43.327c0 8.345-2.259 16.065-6.778 23.163-.608.926-1.473 1.39-2.594 1.39H9.373c-1.122 0-1.987-.464-2.596-1.39C2.26 59.424 0 51.703 0 43.327c0-5.818 1.138-11.38 3.412-16.688 2.276-5.307 5.335-9.878 9.182-13.715 3.845-3.836 8.427-6.888 13.746-9.159C31.66 1.495 37.235.36 43.068.36c5.832 0 11.407 1.136 16.727 3.405 5.32 2.27 9.903 5.323 13.748 9.16 3.845 3.836 6.906 8.407 9.18 13.714 2.275 5.307 3.412 10.87 3.412 16.688zm-49.22-30.69c0 1.694.6 3.14 1.802 4.34 1.202 1.199 2.652 1.799 4.35 1.799 1.7 0 3.149-.6 4.35-1.8 1.202-1.198 1.804-2.645 1.804-4.339 0-1.694-.602-3.141-1.804-4.34-1.201-1.199-2.65-1.798-4.35-1.798-1.698 0-3.147.6-4.35 1.799-1.202 1.198-1.802 2.645-1.802 4.339zm-18.457 30.69c0-1.694-.601-3.14-1.803-4.34-1.201-1.199-2.652-1.798-4.35-1.798-1.698 0-3.148.6-4.35 1.798-1.202 1.2-1.802 2.645-1.802 4.34 0 1.694.6 3.142 1.802 4.34 1.202 1.199 2.652 1.8 4.35 1.8 1.698 0 3.148-.601 4.35-1.8 1.202-1.2 1.803-2.646 1.803-4.34zm9.229-21.483c0-1.694-.602-3.14-1.803-4.34-1.202-1.199-2.652-1.798-4.35-1.798-1.699 0-3.148.6-4.35 1.798-1.202 1.2-1.803 2.646-1.803 4.34 0 1.695.601 3.141 1.802 4.34 1.202 1.198 2.652 1.798 4.35 1.798 1.7 0 3.149-.6 4.351-1.798 1.201-1.2 1.803-2.646 1.803-4.34zm25.065 2.421a3.043 3.043 0 0 0-1.85-1.414c-.801-.224-1.57-.12-2.307.311a3.029 3.029 0 0 0-1.442 1.895l-4.855 18.318c-1.922.16-3.637.855-5.142 2.087-1.507 1.23-2.516 2.805-3.029 4.722-.64 2.463-.32 4.795.961 7.002 1.282 2.206 3.157 3.628 5.624 4.267 2.468.64 4.806.32 7.018-.958 2.21-1.279 3.637-3.15 4.278-5.611.513-1.918.416-3.788-.288-5.61-.705-1.824-1.859-3.278-3.462-4.365l4.855-18.317c.193-.832.073-1.607-.36-2.327zm11.85 3.717c1.698 0 3.147-.6 4.35-1.798 1.201-1.2 1.803-2.646 1.803-4.34s-.602-3.14-1.804-4.34c-1.202-1.199-2.651-1.798-4.35-1.798-1.698 0-3.148.6-4.35 1.798-1.201 1.2-1.803 2.646-1.803 4.34 0 1.695.602 3.141 1.804 4.34 1.201 1.199 2.651 1.798 4.35 1.798zm15.38 15.345c0-1.694-.6-3.14-1.802-4.34-1.202-1.199-2.652-1.798-4.35-1.798-1.698 0-3.148.6-4.35 1.798-1.202 1.2-1.803 2.645-1.803 4.34 0 1.694.601 3.142 1.803 4.34 1.202 1.199 2.652 1.8 4.35 1.8 1.698 0 3.148-.601 4.35-1.8 1.202-1.2 1.802-2.646 1.802-4.34z"/><path fill="#54d154" d="M86.135 43.327c0 8.345-2.259 16.065-6.778 23.163-.608.926-1.473 1.39-2.594 1.39H9.373c-1.122 0-1.987-.464-2.596-1.39C2.26 59.424 0 51.703 0 43.327c0-5.818 1.138-11.38 3.412-16.688 2.276-5.307 5.335-9.878 9.182-13.715 3.845-3.836 8.427-6.888 13.746-9.159C31.66 1.495 37.235.36 43.068.36c5.832 0 11.407 1.136 16.727 3.405 5.32 2.27 9.903 5.323 13.748 9.16 3.845 3.836 6.906 8.407 9.18 13.714 2.275 5.307 3.412 10.87 3.412 16.688zm-49.22-30.69c0 1.694.6 3.14 1.802 4.34 1.202 1.199 2.652 1.799 4.35 1.799 1.7 0 3.149-.6 4.35-1.8 1.202-1.198 1.804-2.645 1.804-4.339 0-1.694-.602-3.141-1.804-4.34-1.201-1.199-2.65-1.798-4.35-1.798-1.698 0-3.147.6-4.35 1.799-1.202 1.198-1.802 2.645-1.802 4.339zm-18.457 30.69c0-1.694-.601-3.14-1.803-4.34-1.201-1.199-2.652-1.798-4.35-1.798-1.698 0-3.148.6-4.35 1.798-1.202 1.2-1.802 2.645-1.802 4.34 0 1.694.6 3.142 1.802 4.34 1.202 1.199 2.652 1.8 4.35 1.8 1.698 0 3.148-.601 4.35-1.8 1.202-1.2 1.803-2.646 1.803-4.34zm9.229-21.483c0-1.694-.602-3.14-1.803-4.34-1.202-1.199-2.652-1.798-4.35-1.798-1.699 0-3.148.6-4.35 1.798-1.202 1.2-1.803 2.646-1.803 4.34 0 1.695.601 3.141 1.802 4.34 1.202 1.198 2.652 1.798 4.35 1.798 1.7 0 3.149-.6 4.351-1.798 1.201-1.2 1.803-2.646 1.803-4.34zm25.065 2.421a3.043 3.043 0 0 0-1.85-1.414c-.801-.224-1.57-.12-2.307.311a3.029 3.029 0 0 0-1.442 1.895l-4.855 18.318c-1.922.16-3.637.855-5.142 2.087-1.507 1.23-2.516 2.805-3.029 4.722-.64 2.463-.32 4.795.961 7.002 1.282 2.206 3.157 3.628 5.624 4.267 2.468.64 4.806.32 7.018-.958 2.21-1.279 3.637-3.15 4.278-5.611.513-1.918.416-3.788-.288-5.61-.705-1.824-1.859-3.278-3.462-4.365l4.855-18.317c.193-.832.073-1.607-.36-2.327zm11.85 3.717c1.698 0 3.147-.6 4.35-1.798 1.201-1.2 1.803-2.646 1.803-4.34s-.602-3.14-1.804-4.34c-1.202-1.199-2.651-1.798-4.35-1.798-1.698 0-3.148.6-4.35 1.798-1.201 1.2-1.803 2.646-1.803 4.34 0 1.695.602 3.141 1.804 4.34 1.201 1.199 2.651 1.798 4.35 1.798zm15.38 15.345c0-1.694-.6-3.14-1.802-4.34-1.202-1.199-2.652-1.798-4.35-1.798-1.698 0-3.148.6-4.35 1.798-1.202 1.2-1.803 2.645-1.803 4.34 0 1.694.601 3.142 1.803 4.34 1.202 1.199 2.652 1.8 4.35 1.8 1.698 0 3.148-.601 4.35-1.8 1.202-1.2 1.802-2.646 1.802-4.34z"/></g></g></svg>