<svg xmlns="http://www.w3.org/2000/svg" width="87" height="74" viewBox="0 0 87 74"><g><g><path d="M87 6.487v61.38c0 1.694-.602 3.14-1.802 4.34-1.202 1.198-2.652 1.799-4.351 1.799H7.017c-1.698 0-3.148-.6-4.35-1.8C1.465 71.009.865 69.562.865 67.868V6.487c0-1.695.6-3.141 1.802-4.34C3.87.949 5.32.348 7.017.348h73.831c1.698 0 3.149.6 4.35 1.799 1.2 1.2 1.802 2.646 1.802 4.34zM13.17 9.556h18.457V3.418H13.17zm67.678 58.311V61.73H7.018v6.138zM30.882 53.361c3.606 3.597 7.955 5.395 13.05 5.395 5.096 0 9.446-1.798 13.05-5.395 3.605-3.596 5.408-7.936 5.408-13.02 0-5.082-1.803-9.422-5.408-13.019-3.604-3.596-7.954-5.394-13.05-5.394-5.095 0-9.444 1.798-13.05 5.394-3.604 3.597-5.407 7.937-5.407 13.02 0 5.083 1.802 9.423 5.407 13.02zM80.848 6.487H41.049l-3.076 6.138H7.018v6.138h73.83zM43.932 52.618c-3.396 0-6.296-1.199-8.7-3.596-2.403-2.398-3.605-5.291-3.605-8.68 0-3.389 1.202-6.282 3.605-8.68 2.404-2.397 5.303-3.596 8.7-3.596 3.397 0 6.297 1.199 8.7 3.597 2.404 2.397 3.606 5.29 3.606 8.679 0 3.389-1.202 6.282-3.606 8.68-2.403 2.397-5.303 3.596-8.7 3.596zm0-16.975c.448 0 .817-.144 1.105-.432.29-.288.434-.656.434-1.103 0-.448-.144-.816-.433-1.103-.289-.288-.657-.431-1.106-.431-2.115 0-3.925.75-5.431 2.253-1.507 1.503-2.26 3.309-2.26 5.419 0 .448.144.815.433 1.103.288.288.657.431 1.105.431.45 0 .818-.143 1.106-.431.289-.288.433-.655.433-1.103 0-1.279.448-2.365 1.345-3.26.898-.896 1.987-1.343 3.269-1.343z"/><path fill="#54d154" d="M87 6.487v61.38c0 1.694-.602 3.14-1.802 4.34-1.202 1.198-2.652 1.799-4.351 1.799H7.017c-1.698 0-3.148-.6-4.35-1.8C1.465 71.009.865 69.562.865 67.868V6.487c0-1.695.6-3.141 1.802-4.34C3.87.949 5.32.348 7.017.348h73.831c1.698 0 3.149.6 4.35 1.799 1.2 1.2 1.802 2.646 1.802 4.34zM13.17 9.556h18.457V3.418H13.17zm67.678 58.311V61.73H7.018v6.138zM30.882 53.361c3.606 3.597 7.955 5.395 13.05 5.395 5.096 0 9.446-1.798 13.05-5.395 3.605-3.596 5.408-7.936 5.408-13.02 0-5.082-1.803-9.422-5.408-13.019-3.604-3.596-7.954-5.394-13.05-5.394-5.095 0-9.444 1.798-13.05 5.394-3.604 3.597-5.407 7.937-5.407 13.02 0 5.083 1.802 9.423 5.407 13.02zM80.848 6.487H41.049l-3.076 6.138H7.018v6.138h73.83zM43.932 52.618c-3.396 0-6.296-1.199-8.7-3.596-2.403-2.398-3.605-5.291-3.605-8.68 0-3.389 1.202-6.282 3.605-8.68 2.404-2.397 5.303-3.596 8.7-3.596 3.397 0 6.297 1.199 8.7 3.597 2.404 2.397 3.606 5.29 3.606 8.679 0 3.389-1.202 6.282-3.606 8.68-2.403 2.397-5.303 3.596-8.7 3.596zm0-16.975c.448 0 .817-.144 1.105-.432.29-.288.434-.656.434-1.103 0-.448-.144-.816-.433-1.103-.289-.288-.657-.431-1.106-.431-2.115 0-3.925.75-5.431 2.253-1.507 1.503-2.26 3.309-2.26 5.419 0 .448.144.815.433 1.103.288.288.657.431 1.105.431.45 0 .818-.143 1.106-.431.289-.288.433-.655.433-1.103 0-1.279.448-2.365 1.345-3.26.898-.896 1.987-1.343 3.269-1.343z"/></g></g></svg>